<?xml version="1.0" encoding="UTF-8"?>
<svg id="Layer_2" data-name="Layer 2" xmlns="http://www.w3.org/2000/svg" viewBox="0 0 194.25 104.28">
  <defs>
    <style>
      .cls-1 {
        fill: #ec1c24;
      }

      .cls-1, .cls-2, .cls-3 {
        stroke: #000;
        stroke-miterlimit: 10;
      }

      .cls-4 {
        fill: #dc3030;
        stroke-width: 0px;
      }

      .cls-2 {
        fill: #f8ad02;
        stroke-width: 2px;
      }

      .cls-3 {
        fill: #faaf40;
      }
    </style>
  </defs>
  <g id="Layer_1-2" data-name="Layer 1">
    <g>
      <g>
        <g>
          <path class="cls-1" d="M12.85,19.03c-1.1,0-3.79-.62-4.27-.86-.29-.14-1.82-1.15-2.21-1.82-.1-.14-.1-1.01,0-1.15.14-.14,1.2-.05,2.02,0,2.78.19,6.34,0,8.4-.38,1.01-.19,2.02-.43,2.69-.43.86,0,1.15,1.06,1.3,1.97.05.43,0,.67-.38.96-.62.38-.86.77-1.34,1.39-.96,1.25-1.34,1.92-2.21,3.07,2.16.67,4.13,1.73,5.71,3.98.43.62.72,3.26.05,3.84-.67.58-3.36.05-3.7-.43-1.1-1.73-1.92-3.98-3.98-5.09-1.3,1.34-2.64,2.78-4.13,4.27-.77.72-2.69,1.58-4.03,2.11-.38.14-.53.14-.91.19-.67.05-2.45-.05-3.07-.34-.19-.05-.14-.82.24-1.01,2.69-1.54,7.49-5.66,10.9-10.56-.24.14-.67.29-1.06.29ZM13.71,9.14c.77.24,2.83,1.15,2.98,1.78s.14,1.49-.14,1.92c-.58.86-3.07.05-3.94-.58-.86-.58-3.31-2.98-2.74-3.55.48-.43,3.26.24,3.84.43ZM19.9,40.87c2.93.24,5.28-.29,7.97-1.06.96-.29,3.46.38,4.03,1.82.29.72-1.01,1.87-1.58,2.11-3.07,1.3-6.53,1.68-11.52,1.54-.38,0-.53-.05-.86-.19-1.34-.48-2.93-2.74-2.83-3.74.19-2.26.77-4.22.43-5.86-.19-.86-1.63-1.92-2.83-3.41-.48-.58,1.49-1.3,2.64-.91,2.54.86,3.65,2.35,3.84,2.78.53,1.15.86,3.79,1.01,5.23,0,.53-.05,1.2-.29,1.68ZM27.15,23.2c-1.87,0-3.94.05-5.42-.58-.82-.34-1.68-1.97-1.58-2.83.53-.19,1.01-.43,1.49-.53,1.06-.14,2.45-.29,3.65-.29.67,0,1.3.05,1.78.05-.05-2.69-.19-5.42-.43-7.58,0,0,0-.53-.34-.67-1.82-.91-4.85-2.45-4.99-4.51,0-.29.19-1.15.34-1.49,1.25.14,2.26.29,3.17.48,1.15.24,4.13,1.34,4.99,2.21,1.1,1.1,1.25,1.87,1.34,3.7.29,4.75.53,13.49-.14,18.63-.14,1.01-1.1,2.98-2.93,4.18-.1.1-.29.19-.48.14-.1-.05-.82-.43-.77-.72.29-1.78.29-2.45.34-4.03v-6.14Z"/>
          <path class="cls-1" d="M36.03,19.07c-.1-.24-.19-.62-.05-.82.14-.14.53-.05.77-.05,1.54.1,2.54.24,4.18.24,3.26,0,8.16-.43,11.43-.91,1.15-.14,3.5,2.02,3.36,2.93-.14.96-2.02.96-2.74.91-2.11-.14-4.18-.24-6-.19-2.5.05-4.99.24-7.49.77-1.1.19-3.02-1.82-3.46-2.88ZM47.65,23.01c3.65,0,6.86,3.17,6.29,7.06-.43,3.65-3.55,6.38-7.25,6.62-4.03.14-7.49-2.45-7.49-6.86.1-3.94,3.94-6.82,8.45-6.82ZM45.44,11.49c.82.24,3.36,1.63,3.65,2.98.1.48.05,1.63-.14,1.92-.58.86-3.17.29-3.98-.48-.53-.53-3.22-4.08-2.74-4.56.43-.48,2.64,0,3.22.14ZM46.74,33.09c1.87-.05,3.7-1.78,3.7-3.84-.05-1.3-.86-2.4-2.26-2.83-1.92-.53-5.14.67-5.28,3.12,0,1.78,1.87,3.6,3.84,3.55ZM62.86,25.56c.62-.1,2.3-.34,3.6-.24.96.14,2.93,1.44,3.07,2.3.05.58-.77,1.82-1.06,2.21-.19.24-.34.48-1.1.53-.91.05-3.98-.05-4.61-.86v3.79c0,4.42-.91,10.56-3.22,13.49-.53.67-.82.72-1.15.53-.19-.1-.77-.72-.96-1.44-.05-.29.1-1.1.29-1.54.34-2.88.53-9.31.53-12.72V11.11c0-.38-.05-.67-.38-.86-1.3-.77-2.4-1.58-3.22-2.88-.14-.19-.48-1.49-.38-2.11.05-.43.43-.53.67-.48,2.4.48,5.23,1.82,6.91,3.17.96.77,1.01,1.49,1.01,2.54v15.07Z"/>
          <path class="cls-1" d="M85.28,26.8c.77.48,1.97.91,2.59,1.44,1.06.86,1.97,2.02,2.93,3.07.43.53.72,1.01.48,1.78-.1.34-.14.53-.29.86-.19.53-.43.67-1.01.58-.72-.1-1.49-.19-2.21-.58-1.1-.58-2.26-2.16-2.98-2.98-.62-.72-.96-1.3-1.44-1.87-1.3,1.34-2.5,3.07-3.98,4.56-.77.72-2.69,1.58-4.03,2.11-.38.14-.53.14-.91.19-.34.05-3.07,0-3.26-.72-.05-.19.05-.38.43-.62,2.59-1.73,7.01-6.62,11.42-11.57-.14.05-.77.34-.82.34-.96-.05-3.6-.34-4.56-.86-.53-.29-1.97-1.49-2.21-2.02-.19-.38-.29-.96.24-1.01.14-.05.96-.05,1.78.05,2.59.29,6.29-.05,8.4-.38.86-.14,1.97-.43,2.64-.48.86-.05,1.15,1.1,1.34,2.02.05.43,0,.67-.38.96-.62.38-.86.77-1.34,1.39l-2.83,3.74ZM91.66,13.46c-.05-.48.14-.86.29-1.01,2.5.72,5.38,1.82,6.86,3.46,1.3,1.44,1.15,2.74,1.15,4.51-.05,6.48.14,8.59-.14,14.93-.05,1.54-1.15,5.42-2.64,6.91-.48.53-1.68-.48-1.63-1.06.53-5.95.48-8.74.24-13.92-.82.19-2.74.43-3.74.34-.29-.05-.38-.1-.53-.19-.53-.38-1.49-1.68-1.92-2.88-.14-.38.05-.53.29-.62,1.82-.67,3.98-.72,5.76-.53,0-1.87,0-3.17-.05-4.27-.58-.82-3.7-3.02-3.94-5.66ZM97.04,8.27c-.67-.86-.86-2.26-.91-2.78-.05-.43.1-.82.67-.82.34,0,.96.19,1.49.34,2.54.62,6.77,3.89,8.45,5.62.58.58.82,1.06.77,2.26,0,1.49,0,3.12.05,4.46.14,4.56.19,9.46.14,16.18-.05,4.9-.86,11.04-2.83,13.58-.24.34-.86.34-.96.14-.24-.43-.58-1.87-.58-2.35.05-2.21.05-5.62.05-6.82-.05-8.35-.14-18.77-.58-24.53-.34-.38-4.42-3.55-5.76-5.28Z"/>
          <path class="cls-1" d="M122.81,11.11c2.74,0,4.51,1.06,5.9,3.41,2.4,3.98-.29,9.36-4.51,10.85-3.07,1.06-7.73.29-9.36-2.78-.77-1.44-1.1-2.83-1.06-4.13.05-4.27,4.13-7.34,9.02-7.34ZM119.26,15.33c-1.73,1.1-2.4,3.02-1.15,4.75.82,1.2,2.16,2.16,3.7,2.06,1.63-.1,3.12-1.1,3.94-2.74,1.01-2.02-.1-4.18-2.3-4.9-1.34-.38-3.02.1-4.18.82ZM135.1,37.46c.43.38.72,1.44.86,1.92,0,.58-.77.91-1.25.91-2.3.24-5.71.34-8.16.58.14.05.43.48.48.53.24.58.38,1.92.14,3.02,3.36.1,6.62-.1,10.56-.67l1.87-.34c.29.38.67,1.2.58,1.54-.14.67-1.82,2.11-2.78,2.4-2.98.86-8.5,1.2-11.38,1.2-.62,0-1.3.05-2.54-.1-.72-.1-1.3-.19-1.34-1.06-.05-.82-.05-2.06.38-2.64,1.01-1.15.96-3.6.48-4.8-.29-.14-.53-.34-.77-.58-.43-.43-.43-1.2-.34-1.39.1-.19.34-.29,1.15-.34,2.54-.14,5.95-.24,8.93-.34.14-1.15.19-2.93.14-3.55-1.58-.05-5.66.24-7.97.67-.43.1-1.01.1-1.63-.34-.53-.38-1.2-1.63-1.44-2.16-.1-.19-.24-.62-.1-.91.1-.19.43-.19.91-.19.82,0,1.92,0,2.64-.05,2.59-.1,7.63-.43,9.26-.91,1.3-.38,3.31,1.68,3.31,2.69,0,.86-1.15,3.6-2.06,4.9h.05ZM133.9,9.43c-.72-.86-2.45-3.31-2.98-4.7-.1-.29-.43-1.44-.1-1.68.38-.29,1.06-.19,1.82.1,1.49.53,3.26,1.82,3.89,2.5,1.82,1.92,1.87,4.94,1.87,7.58,0,3.07-.38,7.68-.58,9.41-.29,2.64-1.44,6.24-2.3,6.1-1.3-.24-1.49-5.76-1.49-6.67l-.14-12.62Z"/>
        </g>
        <g>
          <path class="cls-3" d="M64.87,70.85c1.44,0,3.84,2.11,3.74,3.12-.19,1.15-2.26,1.39-3.22,1.49-3.5.29-6.53.82-10.03,1.73-1.06.29-1.97.24-5.38.24-.91,0-1.49-.62-1.68-1.78-.19-1.25-.24-3.22.38-4.27,1.15-2.06,1.06-4.8.67-7.1-.72-.58-1.82-1.97-1.82-2.64,0-.48.96-1.49,1.44-1.54,3.79-.24,6.19-.58,10.03-1.34,1.49-.29,3.65,1.44,3.79,2.35.14.96-1.63,1.58-2.93,1.92-2.88.72-3.94.82-6.91,1.3,1.44,2.16,1.25,6.43.82,9.02,2.78-1.06,7.58-2.5,11.09-2.5ZM62.47,92.74c3.26.14,5.86-.29,8.88-1.15.91-.29,3.98.29,4.37,1.68.24.77-1.25,2.02-1.92,2.3-2.35,1.01-8.21,1.78-12.48,1.92-1.49.05-3.84-2.4-3.6-3.94.38-2.26.48-4.85.24-6.48-.29-.82-1.78-2.54-3.6-3.98-.58-.48,1.49-1.06,2.64-.67,2.4.82,4.37,3.26,4.42,3.41.53,1.15,1.2,4.03,1.34,5.47,0,.53-.05.96-.29,1.44ZM75.82,69.94c1.1-.24,2.78-.48,3.7-.38.82.1,2.16,1.87,2.59,2.69.24.53.48,1.15-.14,1.54-1.2.72-3.94.53-6.19.24-.14,4.32-.72,9.79-2.83,12.53-.53.67-.82.72-1.15.53-.19-.1-.72-.72-.91-1.44-.05-.29.1-1.1.29-1.54.38-6.1.1-23.28-.14-27.46,0-.38-.05-.67-.38-.86-1.3-.77-2.16-1.63-3.02-2.93-.14-.19-.48-1.44-.38-2.06.05-.43.43-.53.67-.48,2.4.48,4.42,1.78,6.58,3.26,1.15.77,1.34,1.34,1.34,2.5v13.87Z"/>
          <path class="cls-3" d="M98.28,62.4c.58-.1,1.87.34,2.16.82.34.58-.82,2.45-1.73,2.88-.48.24-4.37,1.2-7.63,1.3.77,1.54,1.39,7.44.43,8.79,1.34-.24,7.06-.91,8.59-1.1,1.63-.19,4.27-.48,4.85-.34.43.1.82,1.15.77,1.34-.24.72-2.26,3.17-3.36,3.12-.96-.05-2.26-.05-3.84,0-2.59.1-6.34.48-9.07.96-.67.1-1.78-1.06-2.21-1.63-.24-.34-.05-.62.05-.96.72-2.4.62-6.14.19-8.3-.19-.96-.05-1.34.05-1.73-.1-.05-.53-.14-1.2-.43-.43-.19-1.01-1.63-1.25-2.3-.05-.19-.14-.29.1-.58.29-.34,1.01-.77,1.25-.82,3.94.34,7.87-.38,11.86-1.01ZM100.54,68.98c.91-.05.77.53.72.86-.05.48-.72,1.68-1.1,1.92-.62.43-3.98,1.25-5.18,1.39-.24.05-.48.1-.72-.1-.67-.43-1.34-1.54-1.73-2.3-.1-.19-.38-.86.48-.96,2.64-.29,5.47-.67,7.54-.82ZM112.11,73.49c.62-.1,2.3-.34,3.6-.24.96.14,2.93,1.44,3.07,2.3.05.58-.77,1.82-1.06,2.21-.19.24-.34.48-1.1.53-.91.05-3.98-.05-4.61-.86v3.79c0,4.42-.91,10.56-3.22,13.49-.53.67-.82.72-1.15.53-.19-.1-.77-.72-.96-1.44-.05-.29.1-1.1.29-1.54.34-2.88.53-9.31.53-12.72v-20.5c0-.38-.05-.67-.38-.86-1.3-.77-2.4-1.58-3.22-2.88-.14-.19-.48-1.49-.38-2.11.05-.43.43-.53.67-.48,2.4.48,5.23,1.82,6.91,3.17.96.77,1.01,1.49,1.01,2.54v15.07Z"/>
          <path class="cls-3" d="M137.88,75.74c1.15.05,3.31,1.92,3.22,3.02-.1,1.01-2.45,1.39-3.36,1.49-4.42.48-7.73.86-12.67,1.87-.77.14-1.25-.14-1.44-1.3-.19-1.25-.43-1.92-.1-3.12.82-3.02.58-5.81.29-7.87-.72-.58-1.82-1.49-1.82-2.16,0-.48.96-1.44,1.44-1.54.86-.14,1.73-.24,2.54-.29,3.07-.14,4.94-.53,7.01-1.06,1.44-.38,3.12,1.34,3.26,2.26.1.53-1.06,1.3-2.4,1.68-2.06.58-4.27,1.01-6.43,1.2.14.19.53.62.62.91.38,1.39.48,5.33.14,7.06,2.78-1.06,6.19-2.16,9.7-2.16ZM145.32,62.88c1.3,1.44,1.15,2.74,1.15,4.51-.05,2.11,0,3.74,0,5.38,1.06-.1,2.69-.24,3.75-.24.38,0,.82,0,1.2.05-.05-3.5-.19-6.82-.43-10.42-.05-.62-.05-1.01-.77-1.68-1.01-.91-1.63-1.58-3.65-3.79-.72-.82-1.34-2.59-1.39-3.12-.05-.43.1-.82.67-.82.34,0,2.88.96,3.41,1.25,2.3,1.25,3.89,2.02,5.57,3.74.58.58.77,1.06.77,2.26,0,1.49,0,3.94.05,5.28.14,4.56.19,9.46.14,16.18-.05,4.9-.86,11.04-2.83,13.58-.24.34-.86.34-.96.14-.38-.67-.58-1.49-.58-2.21.05-2.21.05-5.76.05-6.96-.05-3.41-.05-6.34-.05-9.12-1.73-.05-3.5-.1-4.94-.58,0,2.06-.05,4.22-.14,6.96-.05,1.54-1.15,5.42-2.64,6.91-.48.53-1.44-1.06-1.44-1.63.14-6.24.1-13.78-.29-21.46-.05-.72-.1-1.3-.48-1.68-1.34-1.49-3.12-3.02-3.31-4.99-.05-.48.14-.86.29-1.01,2.5.72,5.38,1.82,6.87,3.46Z"/>
          <path class="cls-3" d="M174.12,77.18c1.3.58,2.4,1.25,2.4,1.68,0,.72-.14,2.06-.38,3.41,2.35,0,4.51.19,6.34.53.62.1,2.3,1.49,2.59,2.45.05.29-.34,1.01-.77,1.34-.29.24-1.54.58-2.3.62-.1.05-2.59-.58-2.54-.58-4.32-.86-11.33-.86-17.62.38-.58.1-1.39-.34-1.49-.48-.14-.29.14-1.44.38-1.68.77-.72,2.45-1.34,3.55-1.58,2.59-.48,5.42-.82,8.21-.96-.05-.82-.1-1.68-.1-2.26-.38-.29-2.06-1.97-2.54-2.83-1.54-.38-2.88-1.2-3.6-2.5-.67-1.25-1.01-2.45-1.01-3.55.1-3.65,3.7-6.24,8.06-6.24,2.4,0,3.98.91,5.23,2.88,2.11,3.36-.24,7.97-3.98,9.22l-.43.14ZM181.51,63.94c-.34.14-1.97-.1-2.74-.1-2.69,0-8.64,0-11.38.29-.58.05-1.15.14-1.73.24-1.06.24-3.46-1.63-3.46-2.54,0-.19.1-.91.34-1.01.14-.05,4.27-.1,4.37-.1,2.59,0,9.17-.14,12.1-.62,1.39-.24,3.36,1.97,3.17,3.12,0,0-.29.58-.67.72ZM169.51,54.24c1.87.62,4.46,1.54,5.28,1.73.48.1.86.29.96.77.19.86.1,1.92-.91,2.35-1.06.43-3.26-.19-5.09-1.39-.86-.58-2.88-3.5-2.26-3.84.43-.24,1.44.19,2.02.38ZM172.39,68.16c-1.25.14-3.17.91-3.36,2.59-.14,1.58,1.58,3.26,3.36,3.12,1.25-.1,2.45-.77,3.02-2.02,1.06-2.02-.96-3.94-3.02-3.7ZM186.55,60.24c0-.14-.05-.34-.19-.43-1.97-1.01-3.79-3.22-5.42-5.33-.14-.14-.1-.29-.05-.48.1-.34.53-1.15,1.2-1.15.48.05.96.24,1.39.43,1.78.77,4.08,2.3,5.66,3.46,1.25.86,1.49,1.54,1.49,3.12l-.14,19.68c0,2.5-.1,7.39-.24,9.84-.14,2.93-.72,4.37-2.74,5.76-.67.48-1.06-.19-1.06-.53.1-4.75.05-7.87.05-11.23,0-7.49,0-12.34.05-20.69v-2.45Z"/>
        </g>
      </g>
      <g>
        <ellipse class="cls-2" cx="20.48" cy="78.86" rx="19.48" ry="19.08"/>
        <path class="cls-4" d="M21.15,66.34l.07.04,2.91,8.63.1.15,9.65.29-7.79,5.67c.8,3.11,1.65,6.21,2.33,9.34-2.5-1.86-4.93-3.83-7.38-5.75l-.2.08-7.38,5.45c.72-3.09,1.66-6.13,2.44-9.21l-7.65-5.64,9.68-.24c1.12-2.93,2.02-5.93,3.21-8.83Z"/>
      </g>
    </g>
  </g>
</svg>