<?xml version="1.0" standalone="no"?>
<!DOCTYPE svg PUBLIC "-//W3C//DTD SVG 20010904//EN"
 "http://www.w3.org/TR/2001/REC-SVG-20010904/DTD/svg10.dtd">
<svg version="1.0" xmlns="http://www.w3.org/2000/svg"
 width="800.000000pt" height="800.000000pt" viewBox="0 0 800.000000 800.000000"
 preserveAspectRatio="xMidYMid meet">
<metadata>
Created by potrace 1.14, written by Peter Selinger 2001-2017
</metadata>
<g transform="translate(0.000000,800.000000) scale(0.100000,-0.100000)"
fill="#000000" stroke="none">
<path d="M3677 7990 c-950 -85 -1795 -470 -2466 -1125 -662 -645 -1056 -1436
-1183 -2375 -19 -142 -22 -209 -22 -490 0 -281 3 -348 22 -490 127 -939 521
-1730 1183 -2375 633 -617 1396 -985 2299 -1107 142 -19 209 -22 490 -22 281
0 348 3 490 22 903 122 1666 490 2299 1107 662 645 1056 1436 1183 2375 19
142 22 209 22 490 0 281 -3 348 -22 490 -122 903 -490 1666 -1107 2299 -643
659 -1440 1057 -2365 1181 -176 24 -651 35 -823 20z m758 -344 c466 -62 882
-191 1264 -392 935 -492 1617 -1360 1866 -2379 76 -313 100 -519 100 -875 0
-356 -24 -562 -100 -875 -324 -1322 -1368 -2366 -2690 -2690 -313 -76 -519
-100 -875 -100 -356 0 -562 24 -875 100 -1322 324 -2366 1368 -2690 2690 -76
313 -100 519 -100 875 0 356 24 562 100 875 324 1322 1368 2366 2690 2690 197
48 342 71 620 99 90 9 585 -4 690 -18z"/>
<path d="M4120 6494 c-6 -16 -36 -94 -67 -174 -68 -177 -128 -347 -288 -815
-179 -525 -256 -739 -269 -751 -8 -8 -287 -18 -951 -34 -517 -13 -942 -25
-944 -26 -5 -5 -115 79 752 -573 569 -428 747 -566 743 -579 -3 -9 -30 -111
-60 -227 -30 -115 -103 -385 -161 -600 -113 -418 -257 -985 -253 -996 2 -4
329 239 728 540 399 301 733 550 743 554 14 5 92 -53 330 -246 618 -501 1126
-902 1134 -894 10 11 -156 710 -327 1379 -66 257 -120 474 -120 481 0 8 342
268 759 578 418 310 756 567 753 570 -6 5 -1756 61 -1854 59 -20 0 -31 7 -42
28 -7 15 -140 412 -295 882 -155 470 -286 859 -291 864 -6 6 -13 -2 -20 -20z"/>
</g>
</svg>
